<svg version="1.1" id="Layer_1" xmlns="http://www.w3.org/2000/svg" xmlns:xlink="http://www.w3.org/1999/xlink" x="0px" y="0px"
	 width="100%" viewBox="0 0 1080 1080" enable-background="new 0 0 1080 1080" xml:space="preserve">
<path fill="#FFFFFF" opacity="1.000000" stroke="none" 
	d="
M715.000000,1081.000000 
	C476.694122,1081.000000 238.888229,1081.000000 1.041167,1081.000000 
	C1.041167,721.068970 1.041167,361.137970 1.041167,1.103480 
	C360.889465,1.103480 720.778931,1.103480 1080.834229,1.103480 
	C1080.834229,360.999939 1080.834229,720.999939 1080.834229,1081.000000 
	C959.137512,1081.000000 837.318787,1081.000000 715.000000,1081.000000 
M617.619507,158.120483 
	C578.965637,196.726898 540.311768,235.333328 501.657928,273.939728 
	C496.983643,278.608276 496.986664,278.605255 492.294250,273.901550 
	C463.587860,245.126251 434.889191,216.343155 406.164215,187.586411 
	C400.868744,182.285080 395.705383,176.813950 390.049225,171.920303 
	C383.071106,165.882874 373.492279,167.742966 369.160706,175.498566 
	C366.184479,180.827393 367.877075,187.937378 373.446838,193.485214 
	C404.075592,223.993286 434.708282,254.497391 465.323883,285.018677 
	C466.756378,286.446777 468.038361,288.025879 470.133392,290.363770 
	C467.074554,290.571503 465.289551,290.799225 463.504639,290.798645 
	C373.017151,290.770233 282.529633,290.674866 192.042206,290.744354 
	C182.183594,290.751923 172.424164,292.302460 163.590378,297.138672 
	C145.093933,307.264954 132.981705,322.355652 132.926590,343.900787 
	C132.592773,474.383209 132.731171,604.866943 132.882477,735.350037 
	C132.888733,740.736267 133.836990,746.392090 135.644897,751.458923 
	C143.577927,773.692017 164.852570,789.668823 191.316666,789.621399 
	C383.458069,789.277100 575.600342,789.433655 767.742371,789.432922 
	C808.903748,789.432800 850.065308,789.376465 891.226440,789.478638 
	C902.707947,789.507202 913.327698,786.817810 922.809143,780.355164 
	C940.544006,768.266968 948.787598,751.341064 948.762817,729.909119 
	C948.652527,634.588135 948.717834,539.266968 948.717590,443.945862 
	C948.717529,412.616547 948.852600,381.286377 948.661072,349.958191 
	C948.521118,327.057373 939.040405,309.241577 918.780823,297.767639 
	C908.131165,291.736298 896.397888,290.673798 884.482605,290.677307 
	C766.831787,290.711914 649.181030,290.761383 531.530212,290.780884 
	C529.304504,290.781250 527.078735,290.467194 523.610840,290.206451 
	C525.854736,287.732056 527.188660,286.128082 528.658569,284.660248 
	C548.422974,264.923187 568.217468,245.216278 587.982178,225.479568 
	C617.396790,196.106613 646.879883,166.801010 676.091064,137.226959 
	C679.814575,133.457153 682.551025,128.473495 684.878357,123.635391 
	C686.915283,119.401077 685.331360,115.209312 682.051941,111.769188 
	C678.662781,108.213844 674.317444,108.095421 670.499146,109.799438 
	C666.047241,111.786171 661.597107,114.441833 658.109131,117.805725 
	C644.571716,130.861771 631.416687,144.314301 617.619507,158.120483 
z"/>
<path fill="#F61321" opacity="1.000000" stroke="none" 
	d="
M617.869385,157.869873 
	C631.416687,144.314301 644.571716,130.861771 658.109131,117.805725 
	C661.597107,114.441833 666.047241,111.786171 670.499146,109.799438 
	C674.317444,108.095421 678.662781,108.213844 682.051941,111.769188 
	C685.331360,115.209312 686.915283,119.401077 684.878357,123.635391 
	C682.551025,128.473495 679.814575,133.457153 676.091064,137.226959 
	C646.879883,166.801010 617.396790,196.106613 587.982178,225.479568 
	C568.217468,245.216278 548.422974,264.923187 528.658569,284.660248 
	C527.188660,286.128082 525.854736,287.732056 523.610840,290.206451 
	C527.078735,290.467194 529.304504,290.781250 531.530212,290.780884 
	C649.181030,290.761383 766.831787,290.711914 884.482605,290.677307 
	C896.397888,290.673798 908.131165,291.736298 918.780823,297.767639 
	C939.040405,309.241577 948.521118,327.057373 948.661072,349.958191 
	C948.852600,381.286377 948.717529,412.616547 948.717590,443.945862 
	C948.717834,539.266968 948.652527,634.588135 948.762817,729.909119 
	C948.787598,751.341064 940.544006,768.266968 922.809143,780.355164 
	C913.327698,786.817810 902.707947,789.507202 891.226440,789.478638 
	C850.065308,789.376465 808.903748,789.432800 767.742371,789.432922 
	C575.600342,789.433655 383.458069,789.277100 191.316666,789.621399 
	C164.852570,789.668823 143.577927,773.692017 135.644897,751.458923 
	C133.836990,746.392090 132.888733,740.736267 132.882477,735.350037 
	C132.731171,604.866943 132.592773,474.383209 132.926590,343.900787 
	C132.981705,322.355652 145.093933,307.264954 163.590378,297.138672 
	C172.424164,292.302460 182.183594,290.751923 192.042206,290.744354 
	C282.529633,290.674866 373.017151,290.770233 463.504639,290.798645 
	C465.289551,290.799225 467.074554,290.571503 470.133392,290.363770 
	C468.038361,288.025879 466.756378,286.446777 465.323883,285.018677 
	C434.708282,254.497391 404.075592,223.993286 373.446838,193.485214 
	C367.877075,187.937378 366.184479,180.827393 369.160706,175.498566 
	C373.492279,167.742966 383.071106,165.882874 390.049225,171.920303 
	C395.705383,176.813950 400.868744,182.285080 406.164215,187.586411 
	C434.889191,216.343155 463.587860,245.126251 492.294250,273.901550 
	C496.986664,278.605255 496.983643,278.608276 501.657928,273.939728 
	C540.311768,235.333328 578.965637,196.726898 617.869385,157.869873 
M760.958740,604.500000 
	C760.957642,541.681091 761.055542,478.861908 760.895508,416.043396 
	C760.847168,397.078400 755.023254,380.180695 741.394958,366.330170 
	C728.038330,352.755737 711.627625,347.751373 693.061707,347.758148 
	C547.427795,347.811493 401.793854,347.746063 256.160187,347.911377 
	C248.604523,347.919952 240.844711,348.902161 233.533401,350.795746 
	C207.424927,357.557770 188.466858,385.027405 188.523895,409.581055 
	C188.723251,495.394592 188.550369,581.208923 188.689972,667.022705 
	C188.700134,673.272095 189.433411,679.678833 190.932327,685.739929 
	C197.673630,712.999817 222.637207,732.655212 250.273956,732.720947 
	C399.572815,733.076050 548.873230,733.014404 698.172424,732.734802 
	C717.178284,732.699219 733.199585,724.326355 745.620178,709.760925 
	C756.466675,697.041443 760.889709,681.973389 760.941345,665.486450 
	C761.003906,645.491150 760.957825,625.495483 760.958740,604.500000 
M882.198425,507.579132 
	C882.360107,506.932678 882.481873,506.273102 882.689392,505.641693 
	C889.793701,484.021332 877.046387,462.096436 855.084351,457.389252 
	C831.953857,452.431641 810.763855,470.017365 810.502686,493.124237 
	C810.279907,512.831543 824.647705,529.424377 843.491394,530.909790 
	C861.585449,532.336243 874.093323,524.277161 882.198425,507.579132 
M812.375732,574.966553 
	C811.773926,578.212341 810.783752,581.440125 810.631958,584.706848 
	C809.426453,610.640381 832.568420,628.113098 855.618713,622.596680 
	C879.288269,616.931946 888.989685,595.124207 882.725647,575.047668 
	C878.624023,561.901733 862.890015,549.645691 848.192993,549.457642 
	C832.499390,549.256836 816.347839,561.069397 812.375732,574.966553 
z"/>
<path fill="#FFFEFE" opacity="1.000000" stroke="none" 
	d="
M760.958740,605.000000 
	C760.957825,625.495483 761.003906,645.491150 760.941345,665.486450 
	C760.889709,681.973389 756.466675,697.041443 745.620178,709.760925 
	C733.199585,724.326355 717.178284,732.699219 698.172424,732.734802 
	C548.873230,733.014404 399.572815,733.076050 250.273956,732.720947 
	C222.637207,732.655212 197.673630,712.999817 190.932327,685.739929 
	C189.433411,679.678833 188.700134,673.272095 188.689972,667.022705 
	C188.550369,581.208923 188.723251,495.394592 188.523895,409.581055 
	C188.466858,385.027405 207.424927,357.557770 233.533401,350.795746 
	C240.844711,348.902161 248.604523,347.919952 256.160187,347.911377 
	C401.793854,347.746063 547.427795,347.811493 693.061707,347.758148 
	C711.627625,347.751373 728.038330,352.755737 741.394958,366.330170 
	C755.023254,380.180695 760.847168,397.078400 760.895508,416.043396 
	C761.055542,478.861908 760.957642,541.681091 760.958740,605.000000 
z"/>
<path fill="#FFFAFA" opacity="1.000000" stroke="none" 
	d="
M882.090576,507.953491 
	C874.093323,524.277161 861.585449,532.336243 843.491394,530.909790 
	C824.647705,529.424377 810.279907,512.831543 810.502686,493.124237 
	C810.763855,470.017365 831.953857,452.431641 855.084351,457.389252 
	C877.046387,462.096436 889.793701,484.021332 882.689392,505.641693 
	C882.481873,506.273102 882.360107,506.932678 882.090576,507.953491 
z"/>
<path fill="#FFFAFA" opacity="1.000000" stroke="none" 
	d="
M812.524658,574.596436 
	C816.347839,561.069397 832.499390,549.256836 848.192993,549.457642 
	C862.890015,549.645691 878.624023,561.901733 882.725647,575.047668 
	C888.989685,595.124207 879.288269,616.931946 855.618713,622.596680 
	C832.568420,628.113098 809.426453,610.640381 810.631958,584.706848 
	C810.783752,581.440125 811.773926,578.212341 812.524658,574.596436 
z"/>
</svg>